<?xml version="1.0" standalone="no"?>
<!DOCTYPE svg PUBLIC "-//W3C//DTD SVG 20010904//EN"
 "http://www.w3.org/TR/2001/REC-SVG-20010904/DTD/svg10.dtd">
<svg version="1.0" xmlns="http://www.w3.org/2000/svg"
 width="512.000000pt" height="512.000000pt" viewBox="0 0 512.000000 512.000000"
 preserveAspectRatio="xMidYMid meet">
<metadata>
Created by potrace 1.14, written by Peter Selinger 2001-2017
</metadata>
<g transform="translate(0.000000,512.000000) scale(0.100000,-0.100000)"
fill="#000000" stroke="none">
<path d="M1670 5079 c-121 -24 -238 -117 -297 -237 l-38 -76 0 -911 0 -911 37
-75 c58 -118 159 -201 283 -233 87 -23 1721 -24 1808 -1 128 33 225 113 284
233 l38 76 0 910 0 911 -31 66 c-39 81 -91 141 -167 190 -108 70 -93 69 -1034
68 -461 -1 -858 -5 -883 -10z m1826 -141 c59 -31 103 -78 142 -151 l27 -52 0
-880 0 -880 -27 -50 c-35 -68 -92 -122 -158 -154 l-55 -26 -865 0 -865 0 -56
26 c-76 36 -133 90 -166 157 l-28 57 -3 830 c-3 848 -1 909 35 979 36 70 124
142 203 167 14 4 417 7 895 6 l870 -2 51 -27z"/>
<path d="M2495 4616 c-146 -34 -255 -96 -353 -201 -79 -84 -130 -179 -164
-301 -32 -117 -32 -371 0 -499 29 -114 97 -255 157 -322 58 -66 168 -139 253
-169 187 -64 439 -52 585 29 56 31 64 89 16 116 -25 14 -31 13 -85 -12 -84
-37 -145 -48 -259 -48 -135 1 -249 31 -321 86 -18 14 -37 25 -43 25 -18 0 -93
102 -127 175 -57 119 -77 211 -77 365 -1 158 15 237 71 350 110 224 377 342
647 285 109 -23 220 -88 251 -148 13 -25 20 -28 57 -25 45 3 69 31 60 70 -17
64 -165 174 -290 214 -67 22 -299 28 -378 10z"/>
<path d="M333 2485 c-165 -45 -289 -175 -323 -338 -7 -36 -10 -320 -8 -912 l3
-860 23 -57 c47 -117 143 -213 260 -260 l57 -23 855 -3 c612 -2 872 0 915 8
164 32 297 158 341 325 20 73 20 1727 0 1800 -43 161 -159 278 -319 321 -77
21 -1728 19 -1804 -1z m1814 -126 c68 -26 138 -92 173 -164 l25 -50 3 -860 c3
-959 6 -915 -67 -1011 -26 -35 -56 -59 -105 -84 l-69 -35 -872 0 -872 0 -69
35 c-49 25 -79 49 -106 85 -71 93 -69 53 -66 1011 l3 859 22 48 c30 65 110
141 175 166 52 19 75 20 910 20 852 1 858 1 915 -20z"/>
<path d="M1087 2008 c-16 -12 -541 -1359 -554 -1419 -8 -42 12 -69 51 -69 19
0 39 7 46 15 7 8 69 162 139 342 l126 328 331 3 331 2 133 -327 c73 -181 140
-336 148 -345 30 -36 102 -13 102 32 0 35 -569 1414 -591 1433 -17 14 -41 17
-133 17 -74 0 -118 -4 -129 -12z m250 -260 c34 -84 86 -212 116 -285 l55 -131
-277 -4 c-152 -2 -279 -1 -282 2 -4 3 23 79 58 170 35 91 84 218 109 283 l46
117 57 0 57 0 61 -152z"/>
<path d="M2980 2486 c-130 -37 -229 -120 -288 -244 l-37 -77 -3 -865 c-2 -639
0 -879 9 -920 36 -170 172 -304 344 -340 34 -7 333 -10 910 -8 l860 3 57 23
c117 47 213 143 260 260 l23 57 3 860 c2 592 -1 876 -8 912 -35 167 -173 307
-338 342 -79 17 -1731 14 -1792 -3z m1813 -126 c76 -29 130 -79 169 -158 l33
-67 0 -870 0 -870 -26 -56 c-33 -71 -87 -125 -158 -158 l-56 -26 -875 0 -875
0 -63 34 c-76 41 -125 95 -152 168 -19 52 -20 77 -20 908 0 850 0 855 22 912
28 76 104 152 178 181 54 21 66 21 912 21 835 1 859 0 911 -19z"/>
<path d="M3327 2000 l-27 -21 0 -713 c0 -678 1 -714 18 -729 17 -15 56 -17
356 -17 372 0 439 7 553 60 113 52 198 153 223 265 18 80 14 205 -9 269 -25
72 -79 145 -131 180 l-41 27 35 39 c48 54 73 105 87 184 32 172 -59 341 -224
416 -107 48 -142 52 -487 57 -322 5 -325 5 -353 -17z m658 -110 c186 -27 289
-129 289 -285 0 -86 -22 -134 -90 -194 l-47 -41 -358 0 -359 0 0 265 0 265
248 0 c136 0 279 -5 317 -10z m213 -666 c99 -49 141 -125 142 -254 0 -69 -5
-95 -24 -136 -28 -61 -82 -115 -142 -143 -89 -42 -154 -50 -462 -53 l-292 -3
0 308 0 307 363 0 363 0 52 -26z"/>
</g>
</svg>
